#N canvas 1633 255 450 698 10;
#X obj 65 45 bng 15 250 50 0 empty empty empty 17 7 0 10 -262144 -1
-1;
#X obj 66 87 metro 100;
#X obj 66 130 f 1;
#X obj 114 131 + 1;
#X floatatom 68 167 5 0 0 0 - - -;
#X obj 62 236 tabread sticky;
#X obj 232 205 table sticky;
#X msg 156 35 \; sticky 2 4 6 4 2 1 1 9 8 3 10 3 8 12 11 5 3;
#X obj 68 209 % 16;
#X floatatom 60 278 5 0 0 0 - - -;
#X obj 57 400 + 48;
#X obj 70 531 mtof;
#X obj 70 571 osc~;
#X obj 67 614 dac~;
#X floatatom 185 216 5 0 0 0 - - -;
#X obj 155 273 > 4;
#X obj 67 323 *;
#X floatatom 56 351 5 0 0 0 - - -;
#X obj 162 553 *;
#X floatatom 225 474 5 0 0 0 - - -;
#X floatatom 7 468 5 0 0 0 - - -;
#X floatatom 153 421 5 0 0 0 - - -;
#X floatatom 147 322 5 0 0 0 - - -;
#X obj 155 353 == 0;
#X floatatom 163 599 5 0 0 0 - - -;
#X obj 65 479 +;
#X obj 170 140 bng 15 250 50 0 empty empty empty 17 7 0 10 -262144
-1 -1;
#X obj 230 140 bng 15 250 50 0 empty empty empty 17 7 0 10 -262144
-1 -1;
#X msg 223 174 6;
#X msg 160 176 0;
#X msg 229 427 0;
#X obj 328 303 vsl 15 128 0 127 0 0 empty empty empty 0 -9 0 10 -262144
-1 -1 0 1;
#X connect 0 0 1 0;
#X connect 1 0 2 0;
#X connect 2 0 3 0;
#X connect 2 0 4 0;
#X connect 3 0 2 1;
#X connect 4 0 8 0;
#X connect 5 0 9 0;
#X connect 8 0 5 0;
#X connect 9 0 16 0;
#X connect 10 0 25 0;
#X connect 11 0 12 0;
#X connect 12 0 13 0;
#X connect 12 0 13 1;
#X connect 14 0 15 0;
#X connect 15 0 16 1;
#X connect 15 0 22 0;
#X connect 16 0 17 0;
#X connect 17 0 10 0;
#X connect 18 0 24 0;
#X connect 18 0 25 1;
#X connect 19 0 18 0;
#X connect 21 0 18 1;
#X connect 22 0 23 0;
#X connect 23 0 21 0;
#X connect 25 0 20 0;
#X connect 25 0 11 0;
#X connect 26 0 29 0;
#X connect 27 0 28 0;
#X connect 27 0 30 0;
#X connect 28 0 14 0;
#X connect 29 0 14 0;
#X connect 30 0 19 0;
#X connect 31 0 19 0;
