#N canvas 671 138 572 464 12;
#X declare -lib pdogg/oggread~;
#X obj 27 411 dac~;
#X floatatom 75 412 8 0 0 0 - - -;
#X msg 71 170 start;
#X msg 111 226 stop;
#X msg 118 287 resume;
#X text 119 168 play file from beginning;
#X text 152 226 stop (pause) playing;
#X text 179 288 resume playing at current position;
#X msg 396 394 \; pd dsp 1;
#X msg 472 394 \; pd dsp 0;
#X obj 396 368 loadbang;
#X text 152 411 position in file (seconds);
#X text 17 16 oggread~ version 0.2 - Ogg Vorbis file player;
#X msg 126 250 0;
#X msg 95 195 1;
#X text 230 318 set new playing position (in seconds);
#X obj 95 375 bng 15 250 50 0 empty empty empty 0 -6 0 8 -262144 -1
-1;
#X text 121 375 bang at end of file;
#X obj 55 102 openpanel;
#X msg 55 74 bang;
#X msg 55 129 open \$1;
#X msg 36 45 open /home/genjix/media/music/dinosaurs.ogg;
#X msg 149 317 seek 10;
#X text 273 98 metro can do delays;
#X obj 254 79 import pdogg/oggread~;
#X obj 36 343 oggread~;
#X floatatom 168 349 5 0 0 0 - - -;
#X obj 36 379 *~;
#X connect 2 0 25 0;
#X connect 3 0 25 0;
#X connect 4 0 25 0;
#X connect 10 0 8 0;
#X connect 13 0 25 0;
#X connect 14 0 25 0;
#X connect 18 0 20 0;
#X connect 19 0 18 0;
#X connect 20 0 25 0;
#X connect 21 0 25 0;
#X connect 22 0 25 0;
#X connect 25 0 27 0;
#X connect 25 1 27 0;
#X connect 25 2 1 0;
#X connect 25 3 16 0;
#X connect 25 3 2 0;
#X connect 26 0 27 1;
#X connect 27 0 0 0;
#X connect 27 0 0 1;
