#N canvas 34 67 1236 639 10;
#X declare -lib flatspace/arraysize;
#X declare -lib mrpeach/udpreceive;
#X declare -lib mrpeach/unpackOSC;
#X declare -lib mrpeach/routeOSC;
#N canvas 0 0 450 300 (subpatch) 0;
#X array beeps-loop 80554 float 2;
#X coords 0 0 80554 1 200 140 0;
#X restore 898 -126 graph;
#X obj 909 -75 soundfiler;
#X obj 75 -161 bng 15 250 50 0 empty empty empty 17 7 0 10 -262144
-1 -1;
#X obj 78 -61 hip~ 5;
#X obj 31 83 dac~;
#X msg 127 35 \; pd dsp \$1;
#X obj 127 10 tgl 15 0 empty empty empty 17 7 0 10 -262144 -1 -1 0
1;
#X obj 26 1 vd~ delloop;
#X obj 79 -27 delwrite~ delloop 1000;
#X floatatom 668 34 0 0 0 0 - - -;
#X obj 668 61 * 441;
#X obj 579 111 +~ 1;
#X text 707 33 <-- chunk size (100ths of a second);
#X obj 575 286 output~;
#X obj 579 86 *~;
#X obj 577 140 tabread4~ beeps-loop;
#N canvas 0 0 450 300 (subpatch) 0;
#X array helectro 44948 float 2;
#X coords 0 0 1 1 200 140 0;
#X restore 898 -162 graph;
#X obj 57 26 hsl 40 20 0 1 0 0 empty empty empty -2 -8 0 10 -4034 -1
-1 0 1;
#X obj 31 55 *~;
#X floatatom 86 66 5 0 0 0 - - -;
#X obj 135 -132 tgl 15 0 empty empty empty 17 7 0 10 -262144 -1 -1
0 1;
#X text 152 -133 < is finished;
#X obj 77 -131 spigot;
#X obj 685 204 hsl 128 15 0 127 0 1 empty empty empty -2 -8 0 10 -262144
-1 -1 8000 1;
#X obj 685 229 mtof;
#X obj 626 236 lop~;
#X obj 557 191 *~;
#X obj 624 197 *~;
#X obj 687 254 hsl 128 15 0 127 0 1 empty empty empty -2 -8 0 10 -262144
-1 -1 3300 1;
#X obj 689 280 mtof;
#X obj 552 218 hip~;
#X text 725 178 lopass settings;
#X text 726 227 hipass settings;
#X obj 833 188 vsl 25 80 0 1 0 0 empty empty empty 0 -9 0 10 -4160
-1 -1 0 1;
#X floatatom 684 170 5 0 0 0 - - -;
#X obj 835 280 - 1;
#X obj 832 309 * -1;
#X floatatom 887 260 6 0 0 0 - - -;
#X obj 1006 111 tgl 15 0 empty empty empty 17 7 0 10 -262144 -1 -1
0 1;
#X obj 1008 141 - 0.5;
#X floatatom 997 195 5 0 0 0 - - -;
#X obj 993 223 +;
#X obj 885 185 f 0;
#X obj 1011 165 * 0.1;
#X obj 991 253 clip 0 1;
#X obj 884 117 bng 15 250 50 0 empty empty empty 17 7 0 10 -262144
-1 -1;
#X obj 885 143 metro 10;
#X obj 78 -93 tabplay~ beeps-loop;
#X obj 577 56 phasor~;
#X floatatom 312 20 0 0 0 0 - - -;
#X floatatom 448 25 0 0 0 0 - - -;
#X obj 446 95 * 441;
#X obj 361 150 +~ 1;
#X obj 362 122 *~;
#X obj 361 85 phasor~;
#X obj 367 255 dac~;
#X obj 360 176 tabread~ beeps-loop;
#X obj 357 -161 import flatspace/arraysize;
#X obj 768 -73 arraysize beeps-loop;
#X floatatom 769 -45 20 0 0 0 - - -;
#X obj 462 66 * 100;
#X obj 310 53 /;
#X floatatom 215 78 5 0 0 0 - - -;
#X obj 309 -2 bng 15 250 50 0 empty empty empty 17 7 0 10 -262144 -1
-1;
#X floatatom 667 -29 0 0 0 0 - - -;
#X obj 665 2 * 100;
#X obj 581 26 /;
#X obj 583 -29 bng 15 250 50 0 empty empty empty 17 7 0 10 -262144
-1 -1;
#X text 577 -53 frequency (Hz.);
#X obj 771 -16 / 44100;
#X obj 737 -128 t b b;
#X obj 737 -155 bng 15 250 50 0 empty empty empty 17 7 0 10 -262144
-1 -1;
#X msg 770 -102 read -resize ./samples/beeps-loop.wav beeps-loop;
#X obj 358 -134 import mrpeach/udpreceive;
#X obj 360 -107 import mrpeach/unpackOSC;
#X obj 361 -81 import mrpeach/routeOSC;
#X obj 992 -47 udpreceive 9002;
#X obj 994 -21 unpackOSC;
#X obj 993 6 routeOSC /test;
#X obj 582 -2 nbx 5 14 -1e+37 1e+37 0 1 empty empty empty 0 -8 0 10
-262144 -1 -1 0.8 256;
#X obj 204 196 osc~;
#X obj 212 255 *~;
#X obj 212 313 dac~;
#X obj 171 129 hsl 128 15 0 127 0 0 empty empty empty -2 -8 0 10 -262144
-1 -1 0 1;
#X obj 183 169 mtof;
#X obj 50 216 metro 10;
#X obj 36 264 f 0;
#X floatatom 37 340 5 0 0 0 - - -;
#X obj 51 178 bng 15 250 50 0 empty empty empty 17 7 0 10 -262144 -1
-1;
#X obj 86 262 + 1;
#X obj 140 153 *;
#X floatatom 133 270 5 0 0 0 - - -;
#X obj 319 177 vsl 15 128 1 127 0 0 empty empty empty 0 -9 0 10 -262144
-1 -1 0 1;
#X obj 35 293 %;
#X obj 36 318 /;
#X obj 553 247 *~;
#X obj 526 86 vsl 15 128 0 2 0 1 empty empty empty 0 -9 0 10 -258113
-1 -1 3900 1;
#X obj 530 -80 vsl 15 128 0 2 0 0 empty empty empty 0 -9 0 10 -257985
-1 -1 5080 1;
#X floatatom 526 62 5 0 0 0 - - -;
#X floatatom 553 -93 5 0 0 0 - - -;
#X obj 555 -119 bng 15 250 50 0 empty empty empty 17 7 0 10 -262144
-1 -1;
#X obj 406 323 hsl 50 15 0 127 0 0 empty empty empty -2 -8 0 10 -262144
-1 -1 0 1;
#X floatatom 396 358 5 0 0 0 - - -;
#X obj 324 427 set \$1f;
#X obj 175 390 delay 100;
#X obj 267 390 metro 500;
#X obj 271 430 bng 15 250 50 0 empty empty empty 17 7 0 10 -262144
-1 -1;
#X obj 268 356 bng 15 250 50 0 empty empty empty 17 7 0 10 -262144
-1 -1;
#X msg 297 357 0;
#X floatatom 399 434 5 0 0 0 - - -;
#X obj 402 398 expr ($f1 > 10) && ($f2 > 10);
#X floatatom 528 357 5 0 0 0 - - -;
#X floatatom 1000 328 5 0 0 0 - - -;
#X floatatom 290 328 5 0 0 0 - - -;
#X obj 941 337 spigot;
#X obj 929 308 bng 15 250 50 0 empty empty empty 17 7 0 10 -262144
-1 -1;
#X msg 939 368 0;
#X obj 954 285 expr ($f1 > 1.01) || ($f1 < -0.01);
#X obj 993 38 routeOSC /speed;
#X floatatom 1099 81 5 0 0 0 - - -;
#X obj 922 72 expr 0.008 * $f1 + 0.8;
#X connect 2 0 22 0;
#X connect 3 0 8 0;
#X connect 6 0 5 0;
#X connect 7 0 18 0;
#X connect 9 0 10 0;
#X connect 10 0 14 1;
#X connect 11 0 15 0;
#X connect 14 0 11 0;
#X connect 15 0 27 0;
#X connect 15 0 26 0;
#X connect 17 0 18 1;
#X connect 17 0 19 0;
#X connect 18 0 4 0;
#X connect 18 0 4 1;
#X connect 20 0 22 1;
#X connect 22 0 20 0;
#X connect 22 0 47 0;
#X connect 23 0 24 0;
#X connect 24 0 25 1;
#X connect 25 0 13 0;
#X connect 25 0 13 1;
#X connect 26 0 30 0;
#X connect 27 0 25 0;
#X connect 28 0 29 0;
#X connect 29 0 30 1;
#X connect 30 0 95 0;
#X connect 33 0 34 0;
#X connect 33 0 35 0;
#X connect 34 0 27 1;
#X connect 35 0 36 0;
#X connect 36 0 26 1;
#X connect 38 0 39 0;
#X connect 38 0 45 0;
#X connect 39 0 43 0;
#X connect 40 0 41 1;
#X connect 41 0 44 0;
#X connect 41 0 117 0;
#X connect 42 0 41 0;
#X connect 42 0 37 0;
#X connect 42 0 33 0;
#X connect 43 0 40 0;
#X connect 44 0 42 1;
#X connect 45 0 46 0;
#X connect 46 0 42 0;
#X connect 47 0 3 0;
#X connect 47 1 20 0;
#X connect 48 0 14 0;
#X connect 49 0 61 0;
#X connect 50 0 60 0;
#X connect 50 0 61 1;
#X connect 50 0 63 0;
#X connect 51 0 53 1;
#X connect 52 0 56 0;
#X connect 53 0 52 0;
#X connect 54 0 53 0;
#X connect 58 0 59 0;
#X connect 59 0 69 0;
#X connect 60 0 51 0;
#X connect 61 0 54 0;
#X connect 61 0 62 0;
#X connect 63 0 49 0;
#X connect 64 0 65 0;
#X connect 64 0 66 1;
#X connect 64 0 67 0;
#X connect 65 0 9 0;
#X connect 66 0 48 0;
#X connect 67 0 79 0;
#X connect 69 0 64 0;
#X connect 70 0 58 0;
#X connect 70 1 72 0;
#X connect 71 0 70 0;
#X connect 71 0 33 0;
#X connect 72 0 1 0;
#X connect 76 0 77 0;
#X connect 77 0 78 0;
#X connect 78 0 118 0;
#X connect 79 0 66 0;
#X connect 79 0 97 0;
#X connect 80 0 81 0;
#X connect 83 0 90 1;
#X connect 84 0 80 0;
#X connect 85 0 86 0;
#X connect 86 0 89 0;
#X connect 86 0 93 0;
#X connect 87 0 90 0;
#X connect 88 0 85 0;
#X connect 89 0 86 1;
#X connect 90 0 84 0;
#X connect 91 0 93 1;
#X connect 91 0 94 1;
#X connect 92 0 81 1;
#X connect 93 0 94 0;
#X connect 94 0 87 0;
#X connect 95 0 13 0;
#X connect 95 0 13 1;
#X connect 96 0 95 1;
#X connect 97 0 66 0;
#X connect 97 0 98 0;
#X connect 99 0 79 0;
#X connect 100 0 99 0;
#X connect 101 0 102 0;
#X connect 102 0 110 0;
#X connect 105 0 106 0;
#X connect 107 0 105 0;
#X connect 108 0 105 0;
#X connect 110 0 109 0;
#X connect 111 0 110 1;
#X connect 113 0 105 0;
#X connect 114 0 116 0;
#X connect 115 0 114 0;
#X connect 116 0 46 0;
#X connect 117 0 114 1;
#X connect 117 0 115 0;
#X connect 117 0 112 0;
#X connect 118 0 119 0;
#X connect 118 0 120 0;
#X connect 118 1 38 0;
#X connect 120 0 97 0;
